<svg id="Layer_1" data-name="Layer 1" xmlns="http://www.w3.org/2000/svg" viewBox="0 0 2499.08 846"><defs><style>.cls-1{fill:#fff;}</style></defs><g id="App-Store"><path id="background" d="M102,0H2398a101.59,101.59,0,0,1,101.52,101.52v643A101.59,101.59,0,0,1,2398,846H102A101.59,101.59,0,0,1,.46,744.48v-643A101.59,101.59,0,0,1,102,0Z" transform="translate(-0.46)"/><g id="icon"><path id="Fill-2" class="cls-1" d="M547.48,403.71c-.51-60.57,49.58-90,51.78-91.37-28.43-41.28-72.42-47-87.82-47.54C474.56,260.91,438.69,287,419.9,287c-19.11,0-48.22-21.65-79.35-21.15-40.1.68-77.83,23.86-98.31,60.07-42.46,73.6-10.82,181.89,29.95,241.45,20.48,29.1,44.16,61.76,75.47,60.57,30.45-1.18,42-19.46,78.67-19.46,36.55,0,47.21,19.46,79,18.78,32.83-.5,53.3-29.27,73.1-58.71,23.51-33.33,33-66.32,33.33-68-.85-.33-63.62-24.36-64.3-96.78" transform="translate(-0.46)"/><path id="Fill-3" class="cls-1" d="M487.42,225.71C503.83,205.24,515,177.32,512,148.9c-23.69,1-53.47,16.41-70.56,36.54-15.06,17.77-28.59,46.7-25.21,73.94,26.74,2,54.15-13.53,71.24-33.67" transform="translate(-0.46)"/></g><path id="Fill-4" class="cls-1" d="M989.43,623.67H946.79l-23.35-73.43H842.23l-22.17,73.43H778.61L859,373.76h49.74l80.71,249.91ZM916.51,519.44,895.36,454.3c-2.2-6.77-6.43-22.33-12.52-47H882c-2.54,10.66-6.43,26.4-11.84,47l-20.82,65.14Z" transform="translate(-0.46)"/><path id="Fill-5" class="cls-1" d="M1196,531.46q0,45.93-25,72.58c-14.89,15.91-33.5,23.69-55.49,23.69-23.86,0-41-8.46-51.44-25.55v94.59H1024V502.69c0-19.29-.51-38.91-1.52-59.22h35.19l2.2,28.6h.68c13.36-21.49,33.67-32.32,60.74-32.32,21.32,0,38.91,8.46,53.13,25.21,14.55,16.92,21.66,38.92,21.66,66.5Zm-40.78,1.35c0-17.6-3.89-32-11.85-43.31-8.63-11.85-20.3-17.77-34.85-17.77-9.81,0-18.78,3.38-26.9,9.81a45.29,45.29,0,0,0-15.74,25.72,55.08,55.08,0,0,0-1.86,12.18v30.12c0,13,4.06,24.2,12,33.16s18.45,13.54,31.3,13.54c15.06,0,26.74-5.92,35.2-17.43,8.46-11.67,12.69-26.9,12.69-46Z" transform="translate(-0.46)"/><path id="Fill-6" class="cls-1" d="M1403.13,531.46c0,30.62-8.29,54.82-25.05,72.58-14.89,15.91-33.5,23.69-55.49,23.69-23.86,0-40.95-8.46-51.44-25.55v94.59h-40.1V502.69c0-19.29-.51-38.91-1.52-59.22h35.19l2.2,28.6h.68c13.36-21.49,33.67-32.32,60.74-32.32,21.32,0,38.92,8.46,53.13,25.21,14.55,16.92,21.66,38.92,21.66,66.5Zm-40.78,1.35c0-17.6-3.89-32-11.85-43.31-8.62-11.85-20.3-17.77-34.85-17.77-9.81,0-18.78,3.38-26.9,9.81A46.21,46.21,0,0,0,1273,507.26a55.08,55.08,0,0,0-1.86,12.18v30.12c0,13,4.06,24.2,12,33.16s18.45,13.54,31.31,13.54c15,0,26.9-5.92,35.19-17.43,8.63-11.67,12.69-26.9,12.69-46Z" transform="translate(-0.46)"/><path id="Fill-7" class="cls-1" d="M1634.93,553.62c0,21.32-7.44,38.58-22.17,52q-24.36,21.82-68,21.82c-26.91,0-48.39-5.24-64.64-15.56l9.31-33.34a112.27,112.27,0,0,0,57.86,15.57c15.06,0,26.91-3.38,35.2-10.15,8.46-6.77,12.69-15.91,12.69-27.24a35.28,35.28,0,0,0-10.32-25.55q-10.41-10.41-34.52-19.29c-44.16-16.41-66-40.27-66-71.57,0-20.47,7.79-37.23,23.18-50.42,15.4-13,35.87-19.63,61.42-19.63,22.67,0,41.63,3.89,56.68,11.84l-10.15,32.49c-14.21-7.61-30.12-11.51-48-11.51-14,0-25.21,3.56-33.16,10.33-6.6,6.26-10,13.7-10,22.67a30.36,30.36,0,0,0,11.51,24.36c6.6,5.93,18.78,12.35,36.38,19.29,21.49,8.63,37.22,18.78,47.37,30.46,10.32,11.67,15.4,26.22,15.4,43.48" transform="translate(-0.46)"/><path id="Fill-8" class="cls-1" d="M1767.58,473.59h-44.16v87.48c0,22.16,7.78,33.33,23.35,33.33a74.53,74.53,0,0,0,17.77-1.86l1.18,30.45c-8,2.88-18.27,4.4-31.13,4.4-15.91,0-28.09-4.9-37.06-14.55s-13.36-25.89-13.36-48.56V473.42h-26.23V443.47h26.23v-33l39.25-11.84v44.83h44.16v30.12" transform="translate(-0.46)"/><path id="Fill-9" class="cls-1" d="M1966.22,532.13c0,27.75-8,50.43-23.68,68.19q-24.88,27.42-66,27.41c-26.4,0-47.55-8.8-63.28-26.22s-23.52-39.6-23.52-66.33c0-27.92,8.12-50.76,24.19-68.53,16.25-17.76,38.07-26.73,65.48-26.73,26.4,0,47.72,8.8,63.79,26.4,15.4,16.92,23,38.91,23,65.81Zm-41.45.85c0-16.58-3.55-30.63-10.66-42.47-8.46-14.38-20.47-21.49-36-21.49-16.07,0-28.43,7.11-36.72,21.49-7.27,11.84-10.66,26.23-10.66,43.32,0,16.58,3.56,30.79,10.66,42.47,8.63,14.38,20.82,21.48,36.38,21.48q22.85,0,36-21.82C1921.05,563.77,1924.77,549.56,1924.77,533Z" transform="translate(-0.46)"/><path id="Fill-10" class="cls-1" d="M2096.51,478.67a73.81,73.81,0,0,0-12.69-1c-14.05,0-25,5.25-32.66,15.91-6.6,9.3-10,21.32-10,35.53v94.58h-40.1V500.16c0-20.82-.34-39.77-1.19-56.69h34.86l1.52,34.52h1.19c4.23-11.84,10.83-21.49,20-28.59a48.72,48.72,0,0,1,28.94-9.65,83.92,83.92,0,0,1,10,.68l.17,38.24" transform="translate(-0.46)"/><path id="Fill-11" class="cls-1" d="M2275.52,525a91.9,91.9,0,0,1-1.52,18.1H2153.87c.5,17.77,6.26,31.47,17.42,40.78,10.16,8.29,23.18,12.52,39.26,12.52,17.76,0,34-2.88,48.56-8.46l6.26,27.75q-25.63,11.16-60.41,11.17c-27.91,0-49.91-8.29-65.81-24.71s-23.86-38.57-23.86-66.15c0-27.08,7.44-49.75,22.33-67.85q23.36-28.93,63-28.94c25.88,0,45.68,9.65,58.88,28.94,10.66,15.56,16.07,34.34,16.07,56.85Zm-38.24-10.32c.34-11.85-2.37-22.17-7.78-30.8-6.94-11.17-17.6-16.75-31.81-16.75-13,0-23.69,5.42-31.81,16.24A60.13,60.13,0,0,0,2154,514.54l83.24.17Z" transform="translate(-0.46)"/><path class="cls-1" d="M793.33,166.15a241.42,241.42,0,0,1,35.84-2.71c24.22,0,41.46,5.62,52.89,16.27,11.62,10.66,18.4,25.77,18.4,46.88,0,21.31-6.58,38.75-18.79,50.76-12.2,12.2-32.35,18.79-57.73,18.79a271.83,271.83,0,0,1-30.61-1.55Zm16.86,115.46c4.26.77,10.46,1,17,1,36,0,55.6-20.15,55.6-55.41.2-30.8-17.24-50.37-52.88-50.37a95.52,95.52,0,0,0-19.76,1.75Z" transform="translate(-0.46)"/><path class="cls-1" d="M1007.39,247.32c0,34.68-24,49.79-46.69,49.79-25.38,0-44.94-18.6-44.94-48.24,0-31.38,20.53-49.79,46.49-49.79C989.18,199.08,1007.39,218.65,1007.39,247.32Zm-74.39,1c0,20.53,11.82,36,28.48,36,16.27,0,28.48-15.3,28.48-36.42,0-15.88-8-36-28.1-36S933,230.47,933,248.29Z" transform="translate(-0.46)"/><path class="cls-1" d="M1034.32,201.21l12.39,47.66c2.72,10.46,5.23,20.15,7,29.83h.58c2.13-9.49,5.23-19.56,8.33-29.64l15.3-47.85h14.34l14.53,46.89c3.49,11.23,6.2,21.11,8.33,30.6h.58a281.88,281.88,0,0,1,7.17-30.41l13.37-47.08h16.85L1122.85,295h-15.5L1093,250.23a314.37,314.37,0,0,1-8.33-30.81h-.38a276.75,276.75,0,0,1-8.53,31L1060.66,295h-15.5l-28.28-93.77Z" transform="translate(-0.46)"/><path class="cls-1" d="M1170.11,226.59c0-9.68-.19-17.63-.77-25.38h15.11l1,15.5h.38c4.65-8.91,15.5-17.63,31-17.63,13,0,33.13,7.75,33.13,39.91v56h-17V240.93c0-15.11-5.62-27.71-21.7-27.71-11.24,0-20,7.95-22.86,17.44a24.65,24.65,0,0,0-1.16,7.94V295h-17.05Z" transform="translate(-0.46)"/><path class="cls-1" d="M1277.62,157.43h17.05V295h-17.05Z" transform="translate(-0.46)"/><path class="cls-1" d="M1408.19,247.32c0,34.68-24,49.79-46.69,49.79-25.37,0-44.94-18.6-44.94-48.24,0-31.38,20.53-49.79,46.49-49.79C1390,199.08,1408.19,218.65,1408.19,247.32Zm-74.39,1c0,20.53,11.82,36,28.48,36,16.27,0,28.48-15.3,28.48-36.42,0-15.88-8-36-28.09-36S1333.8,230.47,1333.8,248.29Z" transform="translate(-0.46)"/><path class="cls-1" d="M1481.61,295l-1.36-11.82h-.58c-5.23,7.36-15.3,13.95-28.67,13.95-19,0-28.67-13.37-28.67-26.93,0-22.67,20.15-35.06,56.37-34.87v-1.94c0-7.75-2.13-21.7-21.31-21.7a46.77,46.77,0,0,0-24.41,7l-3.87-11.24c7.75-5,19-8.33,30.8-8.33,28.67,0,35.65,19.57,35.65,38.36V272.5a132.38,132.38,0,0,0,1.55,22.48Zm-2.52-47.85c-18.6-.39-39.71,2.9-39.71,21.11,0,11.05,7.36,16.28,16.08,16.28,12.2,0,20-7.75,22.66-15.7a17.8,17.8,0,0,0,1-5.42Z" transform="translate(-0.46)"/><path class="cls-1" d="M1604,157.43V270.76c0,8.33.19,17.82.77,24.22h-15.3l-.78-16.28h-.38c-5.23,10.47-16.66,18.41-32,18.41-22.66,0-40.1-19.18-40.1-47.66-.19-31.19,19.18-50.37,42-50.37,14.34,0,24,6.78,28.28,14.34h.39v-56Zm-17,81.95a30.16,30.16,0,0,0-.77-7.17c-2.52-10.85-11.82-19.76-24.61-19.76-17.63,0-28.09,15.5-28.09,36.23,0,19,9.3,34.67,27.71,34.67,11.43,0,21.89-7.55,25-20.34a29.65,29.65,0,0,0,.77-7.36Z" transform="translate(-0.46)"/><path class="cls-1" d="M1758.24,247.32c0,34.68-24,49.79-46.69,49.79-25.38,0-45-18.6-45-48.24,0-31.38,20.54-49.79,46.5-49.79C1740,199.08,1758.24,218.65,1758.24,247.32Zm-74.39,1c0,20.53,11.81,36,28.47,36,16.28,0,28.48-15.3,28.48-36.42,0-15.88-7.94-36-28.09-36S1683.85,230.47,1683.85,248.29Z" transform="translate(-0.46)"/><path class="cls-1" d="M1779.74,226.59c0-9.68-.2-17.63-.78-25.38h15.11l1,15.5h.39c4.65-8.91,15.5-17.63,31-17.63,13,0,33.13,7.75,33.13,39.91v56h-17V240.93c0-15.11-5.62-27.71-21.69-27.71-11.24,0-20,7.95-22.86,17.44a24.37,24.37,0,0,0-1.17,7.94V295h-17Z" transform="translate(-0.46)"/><path class="cls-1" d="M1948.85,174.29v26.92h24.41v13h-24.41v50.57c0,11.62,3.29,18.21,12.79,18.21a38,38,0,0,0,9.88-1.17l.77,12.79c-3.29,1.36-8.52,2.32-15.11,2.32-7.94,0-14.34-2.51-18.4-7.16-4.85-5-6.59-13.37-6.59-24.41V214.19h-14.53v-13h14.53V178.74Z" transform="translate(-0.46)"/><path class="cls-1" d="M1992.43,157.43h17v58.51h.39a31.48,31.48,0,0,1,12.21-12,35,35,0,0,1,17.43-4.85c12.59,0,32.74,7.75,32.74,40.1V295H2055.2V241.12c0-15.11-5.62-27.9-21.7-27.9-11,0-19.75,7.75-22.85,17.05-1,2.33-1.17,4.85-1.17,8.14V295h-17Z" transform="translate(-0.46)"/><path class="cls-1" d="M2109.44,251.2c.39,23.05,15.11,32.54,32.16,32.54,12.2,0,19.56-2.13,26-4.84l2.9,12.2c-6,2.71-16.27,5.81-31.19,5.81-28.86,0-46.1-19-46.1-47.26s16.66-50.57,44-50.57c30.61,0,38.75,26.93,38.75,44.17a65.31,65.31,0,0,1-.58,7.95Zm50-12.21c.19-10.85-4.46-27.7-23.63-27.7-17.25,0-24.8,15.88-26.16,27.7Z" transform="translate(-0.46)"/></g></svg>