<svg xmlns="http://www.w3.org/2000/svg" viewBox="0 0 478.58 479.15"><g id="Layer_2" data-name="Layer 2"><g id="Layer_1-2" data-name="Layer 1"><path d="M223.83,0c189,1.42,301,171.56,236.34,329-.94,2.29-2.22,4.54-2.68,6.94-7.14,37.4-33.41,47.11-67.16,48.08-62.77,1.8-115.24-22.93-161.66-62.26C173.51,275,132.76,218.53,117.32,146.38c-8.71-40.71-3.52-80.17,13.32-117.94,3.67-8.21,12.28-10.91,14.42-12.25C154,10.59,162.35,8.41,184.53,5,195.33,3.4,208.58,1.6,223.83,0Z"/><path d="M93.08,40.93c-6,22.5-12,40.86-15.56,59.69-11.32,59.72,2.51,114.71,35.14,165C147.34,319,192.82,361.65,248,393.38c45.76,26.29,94.76,34.54,146.94,22.72-64.23,50.84-134.57,77.79-217.05,54.7C86,445.08,27,385.15,6.63,292.35-14.84,194.34,16.32,111.34,93.08,40.93Z"/></g></g></svg>