<svg xmlns="http://www.w3.org/2000/svg" viewBox="0 0 495.64 495.64"><g id="Layer_2" data-name="Layer 2"><g id="Layer_1-2" data-name="Layer 1"><path d="M0,397.66c.25-2.36.39-4.73.76-7.06a25,25,0,0,1,7.3-14.5Q79.43,305.16,150.56,234L262.75,122c7.49-7.47,17.74-7.36,25.26.18q43.39,43.5,86.85,86.93c.42.42.86.82,1.31,1.21,6.38,5.66,7.22,13,1.76,19.69-3.36,4.12-7.3,7.79-11.07,11.57q-84.48,84.69-169,169.34c-25.65,25.71-51.37,51.34-76.82,77.24-4.93,5-10.62,6.77-17.18,7.3-12.75,1-24.28-2.87-35-9.16a167.91,167.91,0,0,1-58.25-56C3.37,418.84.15,407.78,0,397.66Z"/><path d="M383.6,177.29l-65.92-66c1.1,0,2,0,2.9,0,4.74-.16,9.53,0,14.21-.58,8.87-1.13,16.19-5.52,22.45-11.77L451.5,4.76c6.7-6.69,20.26-6.26,26.53.87q7.16,8.13,14.24,16.31A14,14,0,0,1,491.43,41L395,137.3c-7.76,7.75-11.38,17.18-11.41,28.07C383.6,169.21,383.6,173.05,383.6,177.29Z"/></g></g></svg>