<svg id="Layer_1" data-name="Layer 1" xmlns="http://www.w3.org/2000/svg" xmlns:xlink="http://www.w3.org/1999/xlink" viewBox="0 0 1200 356.13"><defs><style>.cls-1{fill:#fff;}.cls-2{fill:#00c1ff;}.cls-3{fill:url(#linear-gradient);}.cls-4{fill:url(#linear-gradient-2);}.cls-5{fill:url(#linear-gradient-3);}.cls-6{fill:url(#linear-gradient-4);}.cls-7{fill:url(#linear-gradient-5);}.cls-8{fill:url(#linear-gradient-6);}.cls-9{fill:url(#linear-gradient-7);}.cls-10{fill:url(#linear-gradient-8);}.cls-11{fill:url(#linear-gradient-9);}.cls-12{fill:url(#linear-gradient-10);}</style><linearGradient id="linear-gradient" x1="17862.71" y1="3161.16" x2="17680.54" y2="3511.49" gradientTransform="translate(-3808.23 -1048.23) scale(0.22 0.43)" gradientUnits="userSpaceOnUse"><stop offset="0" stop-color="#00a0ff"/><stop offset="0.01" stop-color="#00a1ff"/><stop offset="0.26" stop-color="#00beff"/><stop offset="0.51" stop-color="#00d2ff"/><stop offset="0.76" stop-color="#00dfff"/><stop offset="1" stop-color="#00e3ff"/></linearGradient><linearGradient id="linear-gradient-2" x1="10187.86" y1="4624.45" x2="9557.36" y2="4624.45" gradientTransform="translate(-3174.63 -884.28) scale(0.34 0.28)" gradientUnits="userSpaceOnUse"><stop offset="0" stop-color="#ffe000"/><stop offset="0.41" stop-color="#ffbd00"/><stop offset="0.78" stop-color="orange"/><stop offset="1" stop-color="#ff9c00"/></linearGradient><linearGradient id="linear-gradient-3" x1="9775.32" y1="4586.88" x2="9200.63" y2="5027.38" gradientTransform="translate(-3216.04 -814.62) scale(0.35 0.27)" gradientUnits="userSpaceOnUse"><stop offset="0" stop-color="#ff3a44"/><stop offset="1" stop-color="#c31162"/></linearGradient><linearGradient id="linear-gradient-4" x1="9331.45" y1="4383.36" x2="9587.68" y2="4580.05" gradientTransform="translate(-3215.95 -901.52) scale(0.35 0.27)" gradientUnits="userSpaceOnUse"><stop offset="0" stop-color="#32a071"/><stop offset="0.07" stop-color="#2da771"/><stop offset="0.48" stop-color="#15cf74"/><stop offset="0.8" stop-color="#06e775"/><stop offset="1" stop-color="#00f076"/></linearGradient><linearGradient id="linear-gradient-5" x1="9437.27" y1="5241.06" x2="9437.27" y2="5241.06" xlink:href="#linear-gradient-4"/><linearGradient id="linear-gradient-6" x1="22712.88" y1="2868.31" x2="22614.33" y2="3153.77" gradientTransform="translate(-3996.74 -1191.11) scale(0.18 0.52)" gradientUnits="userSpaceOnUse"><stop offset="0" stop-color="#008de0"/><stop offset="0.01" stop-color="#008de0"/><stop offset="0.26" stop-color="#00a7e0"/><stop offset="0.51" stop-color="#00b8e0"/><stop offset="0.76" stop-color="#00c4e0"/><stop offset="1" stop-color="#00c7e0"/></linearGradient><linearGradient id="linear-gradient-7" x1="9046" y1="4939.88" x2="8460.95" y2="4939.88" gradientTransform="translate(-3024.89 -854.17) scale(0.37 0.26)" gradientUnits="userSpaceOnUse"><stop offset="0" stop-color="#e0c500"/><stop offset="0.41" stop-color="#e0a600"/><stop offset="0.78" stop-color="#e09100"/><stop offset="1" stop-color="#e08900"/></linearGradient><linearGradient id="linear-gradient-8" x1="9046.22" y1="4905.5" x2="8461.17" y2="4905.5" gradientTransform="translate(-3024.92 -882.94) scale(0.37 0.26)" gradientUnits="userSpaceOnUse"><stop offset="0" stop-color="#ffe840"/><stop offset="0.41" stop-color="#ffce40"/><stop offset="0.78" stop-color="#ffbc40"/><stop offset="1" stop-color="#ffb540"/></linearGradient><linearGradient id="linear-gradient-9" x1="22627.51" y1="3129.28" x2="22529.51" y2="3401.59" gradientTransform="translate(-3997.89 -1352.43) scale(0.18 0.52)" gradientUnits="userSpaceOnUse"><stop offset="0" stop-color="#40b8ff"/><stop offset="0.01" stop-color="#40b9ff"/><stop offset="0.26" stop-color="#40ceff"/><stop offset="0.51" stop-color="#40ddff"/><stop offset="0.76" stop-color="#40e7ff"/><stop offset="1" stop-color="#40eaff"/></linearGradient><linearGradient id="linear-gradient-10" x1="22630.57" y1="3273.7" x2="22630.57" y2="3273.7" xlink:href="#linear-gradient-9"/></defs><path d="M1155.56,578.07H44.44A44.62,44.62,0,0,1,0,533.55V266.45a44.62,44.62,0,0,1,44.44-44.52H1155.56A44.62,44.62,0,0,1,1200,266.45v267.1a44.62,44.62,0,0,1-44.44,44.52" transform="translate(0 -221.93)"/><path class="cls-1" d="M421.5,313.13q0,11.19-6.62,17.83-7.53,7.91-19.6,7.91a27.91,27.91,0,1,1,0-55.81,27.5,27.5,0,0,1,11,2.24,22,22,0,0,1,8.34,6l-4.69,4.7q-5.29-6.35-14.6-6.34a20.26,20.26,0,0,0-14.56,5.93q-6.15,5.94-6.15,15.41t6.15,15.4a21.22,21.22,0,0,0,29.46,0q3.87-3.88,4.47-10.82H395.28V309.1h25.85a23.87,23.87,0,0,1,.37,4" transform="translate(0 -221.93)"/><path class="cls-1" d="M421.5,313.13h-.89c0,7.29-2.13,13-6.36,17.21h0c-4.85,5.09-11.1,7.62-19,7.63a27,27,0,1,1,0-54,26.66,26.66,0,0,1,10.6,2.17,21.1,21.1,0,0,1,8,5.72l.68-.57-.63-.63-4.69,4.7.63.63.69-.57c-3.7-4.44-8.89-6.67-15.29-6.66a21.16,21.16,0,0,0-15.18,6.18c-4.28,4.12-6.43,9.54-6.42,16.05s2.14,11.93,6.42,16a22.11,22.11,0,0,0,30.71,0c2.75-2.77,4.32-6.61,4.72-11.37l.09-1H396.17V310h25v-.89l-.88.16a22,22,0,0,1,.36,3.87h1.78a23.68,23.68,0,0,0-.39-4.19l-.13-.73H394.39v8.2h20.26v-.89l-.89-.08c-.39,4.48-1.81,7.86-4.21,10.27a20.34,20.34,0,0,1-28.22,0c-3.91-3.79-5.86-8.63-5.87-14.76s2-11,5.87-14.77a19.36,19.36,0,0,1,13.95-5.68c6,0,10.55,2,13.92,6l.63.75,5.37-5.39.57-.58-.52-.62a22.8,22.8,0,0,0-8.67-6.22,28.34,28.34,0,0,0-11.3-2.31,28.8,28.8,0,1,0,0,57.59c8.23,0,15.06-2.73,20.24-8.18l-.65-.62.63.63c4.61-4.6,6.89-10.83,6.89-18.46h-.89m41-22.31H438.18v16.94h21.9v6.42h-21.9v16.93h24.29v6.57H431.33V284.26h31.14v6.56" transform="translate(0 -221.93)"/><path class="cls-1" d="M462.47,290.82v-.89H437.29v18.72h21.9v4.63h-21.9V332h24.29v4.79H432.22V285.15h29.36v5.67h.89v0h.89v-7.45H430.44v55.2h32.92v-8.35H439.07V315.07H461v-8.2h-21.9V291.71h24.29v-.89h-.89m28.9,46.86h-6.86V290.82h-14.9v-6.56h36.65v6.56H491.37v46.86" transform="translate(0 -221.93)"/><path class="cls-1" d="M491.37,337.68v-.89h-6V289.93H470.5v-4.78h34.88v4.78h-14.9v47.75h.89v0h.89v-46h14.89v-8.34H468.73v8.34h14.89v46.86h8.64v-.89h-.89m41.41,0V284.26h6.85v53.42h-6.85" transform="translate(0 -221.93)"/><path class="cls-1" d="M532.78,337.68h.89V285.15h5.07v51.64h-6v.89h0v.89h7.74v-55.2h-8.63v55.2h.89v-.89m37.25,0h-6.86V290.82H548.28v-6.56h36.65v6.56H570v46.86" transform="translate(0 -221.93)"/><path class="cls-1" d="M570,337.68v-.89h-6V289.93H549.17v-4.78H584v4.78h-14.9v47.75H570v0h.89v-46h14.9v-8.34H547.39v8.34h14.89v46.86h8.64v-.89H570m50.23-11.38a20.5,20.5,0,0,0,29,0q5.93-6,5.93-15.33t-5.93-15.34a20.5,20.5,0,0,0-29,0q-5.91,6-5.92,15.34T620.26,326.3Zm34,4.47a27.65,27.65,0,0,1-39.11,0,28.88,28.88,0,0,1,0-39.61,27.56,27.56,0,0,1,39.07,0,28.8,28.8,0,0,1,0,39.57Z" transform="translate(0 -221.93)"/><path class="cls-1" d="M620.26,326.3l-.63.63a21.39,21.39,0,0,0,30.24,0,21.88,21.88,0,0,0,6.19-16c0-6.4-2.07-11.8-6.19-16a21.37,21.37,0,0,0-30.24,0,23.7,23.7,0,0,0,0,31.92l.63-.63.63-.62c-3.77-3.85-5.65-8.68-5.66-14.71s1.89-10.87,5.66-14.71a19.59,19.59,0,0,1,27.71,0c3.78,3.84,5.67,8.68,5.67,14.71s-1.89,10.86-5.67,14.71a19.62,19.62,0,0,1-27.71,0Zm34,4.47-.64-.62a26.76,26.76,0,0,1-37.83,0l0,0,0,0a28,28,0,0,1,0-38.37,26.68,26.68,0,0,1,37.8,0,27.92,27.92,0,0,1,0,38.33l.64.62.64.62a29.7,29.7,0,0,0,0-40.81,28.45,28.45,0,0,0-40.35,0h0a29.81,29.81,0,0,0,0,40.86l0,0,0,0a28.55,28.55,0,0,0,40.39,0Zm17.47,6.91V284.26h8.34L706,325.81h.3l-.3-10.29V284.26h6.86v53.42h-7.15l-27.12-43.57h-.3l.3,10.29v33.28h-6.85" transform="translate(0 -221.93)"/><path class="cls-1" d="M671.78,337.68h.89V285.15h7l25.92,41.55h1.7l-.32-11.19V285.15H712v51.64h-5.77l-27.12-43.57h-1.7l.32,11.2v32.37h-6v.89h0v.89h7.74V304.39l-.3-10.31-.89,0V295h.3v-.89l-.76.47,27.38,44h8.54v-55.2h-8.64v32.16l.3,10.31.89,0v-.89H706v.89l.76-.47-26.19-42h-9.72v55.2h.89v-.89M950.54,489h16.59V377.73H950.54Zm149.4-71.21-19,48.26h-.56l-19.74-48.26h-17.86l29.59,67.45-16.87,37.52h17.3l45.6-105Zm-94.06,58.57c-5.44,0-13-2.72-13-9.45,0-8.59,9.44-11.89,17.58-11.89,7.3,0,10.72,1.58,15.16,3.73a20.12,20.12,0,0,1-19.72,17.61Zm2-61c-12,0-24.45,5.3-29.6,17L993,438.59c3.15-6.16,9-8.17,15.16-8.17,8.58,0,17.3,5.16,17.44,14.33v1.14a36.61,36.61,0,0,0-17.3-4.29c-15.86,0-32,8.73-32,25,0,14.9,13,24.49,27.59,24.49,11.15,0,17.29-5,21.16-10.88h.57v8.59h16V446.18c0-19.76-14.72-30.79-33.73-30.79Zm-102.51,16H881.78V393.22h23.59a19.08,19.08,0,1,1,0,38.15Zm-.43-53.64H865.2V489h16.58V446.86h23.16c18.38,0,36.46-13.33,36.46-34.56s-18.08-34.57-36.46-34.57ZM688.22,476.41c-11.46,0-21.05-9.61-21.05-22.81s9.59-23.09,21.05-23.09,20.19,9.76,20.19,23.09-8.87,22.81-20.19,22.81Zm19-52.35h-.58c-3.72-4.45-10.88-8.46-19.9-8.46-18.9,0-36.23,16.63-36.23,38s17.33,37.73,36.23,37.73c9,0,16.18-4,19.9-8.61h.58v5.45c0,14.49-7.73,22.24-20.19,22.24-10.17,0-16.47-7.32-19.05-13.49l-14.46,6c4.15,10,15.18,22.37,33.51,22.37,19.47,0,35.94-11.47,35.94-39.44v-68H707.27Zm27.21,65h16.61V377.73H734.48Zm41.1-36.72c-.43-14.63,11.31-22.08,19.76-22.08,6.59,0,12.17,3.29,14,8Zm51.55-12.62c-3.15-8.46-12.75-24.09-32.37-24.09s-35.65,15.34-35.65,37.86c0,21.23,16,37.87,37.52,37.87a37.59,37.59,0,0,0,31.5-16.78l-12.89-8.61c-4.29,6.31-10.16,10.47-18.61,10.47s-14.47-3.87-18.33-11.47L828.84,444ZM424.39,427.21v16.07h38.38c-1.15,9-4.16,15.63-8.74,20.22-5.58,5.6-14.32,11.76-29.64,11.76-23.63,0-42.1-19.07-42.1-42.74s18.47-42.74,42.1-42.74a40.89,40.89,0,0,1,28.93,11.47l11.31-11.33c-9.59-9.18-22.34-16.21-40.24-16.21-32.37,0-59.57,26.39-59.57,58.81s27.2,58.81,59.57,58.81c17.47,0,30.65-5.74,40.95-16.5,10.6-10.61,13.9-25.53,13.9-37.58a52.71,52.71,0,0,0-.86-10Zm98.48,49.2c-11.46,0-21.34-9.47-21.34-23s9.88-22.95,21.34-22.95,21.33,9.32,21.33,22.95S534.32,476.41,522.87,476.41Zm0-60.81c-20.91,0-37.95,15.92-37.95,37.86s17,37.87,37.95,37.87,38-16.07,38-37.87S543.77,415.6,522.87,415.6Zm82.78,60.81c-11.45,0-21.33-9.47-21.33-23s9.88-22.95,21.33-22.95S627,439.83,627,453.46s-9.88,23-21.34,23Zm0-60.81c-20.91,0-37.94,15.92-37.94,37.86s17,37.87,37.94,37.87,38-16.07,38-37.87-17-37.86-38-37.86Z" transform="translate(0 -221.93)"/><path class="cls-2" d="M93.41,289.7c-3,2.7-4.76,7.19-4.76,13.16v194.3c0,5.52,1.52,9.77,4.11,12.51l.66.64h0a11.39,11.39,0,0,0,7.85,2.89,20.51,20.51,0,0,0,10-3l129-73.43,44.32-25.23c5.62-3.2,8.78-7.33,9.31-11.54v0c-.53-4.21-3.69-8.34-9.31-11.55l-44.33-25.22-129-73.43a20.45,20.45,0,0,0-10-3,11.42,11.42,0,0,0-7.85,2.89Z" transform="translate(0 -221.93)"/><path class="cls-3" d="M93.42,510.31l-.66-.64c-2.59-2.74-4.11-7-4.11-12.51V302.86c0-6,1.78-10.46,4.76-13.16L203.54,400,93.42,510.31" transform="translate(0 -221.93)"/><path class="cls-4" d="M240.26,436.79,203.54,400l36.71-36.78,44.33,25.22c5.62,3.21,8.78,7.33,9.31,11.55v0c-.53,4.21-3.69,8.34-9.31,11.54l-44.32,25.23" transform="translate(0 -221.93)"/><path class="cls-5" d="M101.27,513.2a11.39,11.39,0,0,1-7.85-2.89h0L203.54,400l36.72,36.78-129,73.43a20.51,20.51,0,0,1-10,3" transform="translate(0 -221.93)"/><path class="cls-6" d="M203.54,400,93.41,289.7a11.42,11.42,0,0,1,7.85-2.89,20.45,20.45,0,0,1,10,3l129,73.43L203.54,400" transform="translate(0 -221.93)"/><path class="cls-7" d="M92.44,514.85" transform="translate(0 -221.93)"/><path class="cls-8" d="M92.76,511c-2.59-2.74-4.11-7-4.11-12.51v-1.3c0,5.52,1.52,9.77,4.11,12.51l.66.64-.66.66" transform="translate(0 -221.93)"/><path class="cls-9" d="M241.08,437.62l-.82-.83,44.32-25.23c5.62-3.2,8.78-7.33,9.31-11.54a11.08,11.08,0,0,1-1,4.59c-1.38,3-4.15,5.89-8.29,8.25l-43.5,24.76" transform="translate(0 -221.93)"/><path class="cls-10" d="M293.89,400c-.53-4.21-3.69-8.34-9.31-11.55l-44.33-25.22.83-.83h0l43.5,24.76c6.2,3.53,9.31,8.19,9.31,12.84" transform="translate(0 -221.93)"/><path class="cls-11" d="M88.65,302.86V301.5q0-.74,0-1.44v0a0,0,0,0,1,0,0v0c.26-4.75,1.74-8.45,4.07-10.92l.65.65c-3,2.7-4.76,7.19-4.76,13.16" transform="translate(0 -221.93)"/><path class="cls-12" d="M92.44,363.5" transform="translate(0 -221.93)"/></svg>