<?xml version="1.0" encoding="UTF-8"?>
<svg width="752pt" height="752pt" version="1.1" fill="#fff" viewBox="0 0 752 752" xmlns="http://www.w3.org/2000/svg">
 <g>
  <path d="m375.61 168.59c-81.414 0-147.42 66.828-147.42 149.27 0 27.645 7.5586 53.438 20.488 75.637v0.34766l1.9219 2.8594c2.0273 3.3008 4.1914 6.4961 6.4648 9.6172 0 0 65.895 84.391 83.246 110.22 12.285 18.27 35.297 66.168 35.297 66.168s23.152-48.105 35.48-66.453c17.309-25.758 83.066-109.94 83.066-109.94 2.2734-3.1172 4.4336-6.3125 6.4648-9.6094l1.9219-2.8633v-0.34766c12.93-22.195 20.488-47.992 20.488-75.637 0.003906-82.441-66.004-149.27-147.42-149.27zm-126.14 152.12c0 3.9023-3.1641 7.0625-7.0547 7.0625-3.9023 0-7.0547-3.1602-7.0547-7.0625 0-80.168 64.449-145.39 143.68-145.39 3.9023 0 7.0547 3.1602 7.0547 7.0547 0 3.8984-3.1523 7.0547-7.0547 7.0547-71.441 0.003907-129.57 58.898-129.57 131.28zm126.14 115.89c-64.766 0-117.28-53.164-117.28-118.75 0-65.586 52.512-118.75 117.28-118.75s117.28 53.164 117.28 118.75c0 65.586-52.512 118.75-117.28 118.75z"/>
  <path d="m480.71 315.66s0.039062 2.6758 0.09375 7.3594v3.8789c-0.14844 1.4102-0.29688 2.9414-0.46484 4.5742-0.3125 3.2773-0.60156 7.0273-1.6562 10.945-0.44531 1.9805-0.90625 4.043-1.3867 6.1836-0.6875 2.082-1.3867 4.2383-2.1094 6.4492-1.2695 4.5195-3.5703 8.8984-5.6328 13.566-2.6172 4.3672-4.9297 9.168-8.2969 13.371-3.0078 4.4648-6.7617 8.4375-10.387 12.52-4.0273 3.6797-7.9102 7.5508-12.336 10.602-4.1641 3.4258-8.8906 5.8594-13.238 8.5195-2.293 1.1328-4.5703 2.1914-6.8086 3.2031-1.1172 0.49609-2.2227 0.99609-3.3203 1.4805-1.1367 0.38281-2.2578 0.76172-3.3672 1.1367-2.2031 0.74219-4.3555 1.4688-6.4258 2.168-2.125 0.55469-4.1992 0.98438-6.1797 1.4492-1.9883 0.40234-3.8516 1-5.6875 1.1836-1.8438 0.19531-3.582 0.375-5.2188 0.54297-1.6367 0.17188-3.1641 0.33203-4.5703 0.47656-1.4258 0.007813-2.7266 0.015625-3.9023 0.023437-4.6875-0.050781-7.375-0.085937-7.375-0.085937s2.6562-0.30469 7.3086-0.83984c1.1562-0.11719 2.4336-0.25391 3.832-0.40234 1.3672-0.28516 2.8594-0.59375 4.4453-0.91797 3.1719-0.62891 6.7344-1.332 10.508-2.5664 1.8945-0.56641 3.8633-1.1562 5.9102-1.7656 1.9688-0.80078 4.0078-1.6328 6.1055-2.4844 1.0469-0.42578 2.0977-0.85547 3.1719-1.2891 1.0273-0.53906 2.0742-1.0859 3.1172-1.6328 2.0977-1.0898 4.2422-2.1992 6.4258-3.3281 4.125-2.6758 8.5195-5.2227 12.496-8.5156 4.2305-2.9609 7.8906-6.7305 11.73-10.273 3.5039-3.8789 7.1602-7.6445 10.074-11.906 3.2578-4.0117 5.6797-8.4883 8.3242-12.629 2.0547-4.4531 4.6094-8.5234 6.0742-12.816 0.83203-2.1016 1.6484-4.1484 2.4336-6.1328 0.58203-2.0508 1.1562-4.0312 1.6992-5.9297 1.2227-3.7891 1.8594-7.3398 2.4961-10.508 0.3125-1.5859 0.62109-3.0703 0.89453-4.4414 0.14844-1.4023 0.28125-2.6953 0.38672-3.8555 0.54297-4.6523 0.83594-7.3125 0.83594-7.3125z"/>
  <path d="m398 318.79-6.9766-3.6016v-0.45703h-1.7773v11.457h1.7773v-3.7969z"/>
  <path d="m360.73 315.18v-0.45703h-1.7852v11.457h1.7852v-3.7969l6.9766-3.6016z"/>
  <path d="m376.34 312.99v-0.46484h-1.7852v12.922h1.7852v-5.25l6.9727-3.6055z"/>
  <path d="m396.21 397.48c0.085937 0.59375 0.17578 1.1875 0.17578 1.8047v11.109c5.0664-0.59766 9.7734-1.3906 14.004-2.3672l-0.3125-0.070312 3.1445-13.449c-5.082 1.2578-10.809 2.25-17.012 2.9727z"/>
  <path d="m366.98 386.81h16.934c4.9883 0 9.2578 2.9648 11.266 7.1992 6.9766-0.77734 13.383-1.9688 18.973-3.4727l2.7852-11.93c-11.043 3.2539-25.297 5.1914-41.051 5.1914-14.918 0-28.441-1.7539-39.207-4.6914l2.6016 11.844c4.957 1.2578 10.508 2.2734 16.488 2.9727 2.0039-4.1953 6.2617-7.1133 11.211-7.1133z"/>
  <path d="m354.5 410.29v-11c0-0.65234 0.097656-1.2773 0.20312-1.9102-5.2617-0.62891-10.129-1.4883-14.559-2.5195l2.9805 13.543c3.5156 0.74609 7.3164 1.3789 11.375 1.8867z"/>
  <path d="m430.65 387.9c-4.0156 2.3594-9.2383 4.418-15.477 6.0938l-3.1914 13.652c7.4062-1.8203 13.383-4.1445 17.527-6.7109z"/>
  <path d="m418.92 377.97-2.8125 12c6.3086-1.8477 11.422-4.0898 14.926-6.5625l0.98047-11.32c-3.4141 2.2305-7.8711 4.1992-13.094 5.8828z"/>
  <path d="m320.38 399.63-1.1172-12.965c-2.0664-1.3906-3.6875-2.8828-4.9023-4.4414l0.007813 6.9609 1.6289 0.71094c-0.35156 0.80078-0.53516 1.6094-0.53516 2.4062 0 2.4688 1.7461 4.9766 4.918 7.3281z"/>
  <path d="m341.21 408-2.9961-13.586c-6.9375-1.7539-12.711-3.9688-17.066-6.5273l1.1367 13.062c4.418 2.7305 10.863 5.1836 18.926 7.0508z"/>
  <path d="m318.85 381.86-0.97266-11.152c-1.4141-1.0938-2.6016-2.2344-3.543-3.418l0.007812 5.3945 1.6562 0.72266c-0.35156 0.80078-0.53516 1.6094-0.53516 2.4023 0 2.0625 1.2109 4.1055 3.3867 6.0508z"/>
  <path d="m337.35 390.44-2.6094-11.863c-6.0586-1.793-11.137-3.9922-14.957-6.4805l0.98047 11.27c3.8125 2.6953 9.5195 5.1328 16.586 7.0742z"/>
  <path d="m433.44 337.14-3.3281 3.2188c4.0664 2.2383 6.5117 4.8633 6.5117 7.8906 0 10.965-31.281 16.879-60.723 16.879s-60.73-5.9141-60.73-16.879c0-3.1133 2.582-5.8008 6.8711-8.0859l-3.1641-3.0625 0.35938-0.37109c-7.2227 3.3008-11.246 7.1172-11.246 10.832 0 9.7188 27.289 20.117 67.91 20.117 40.625 0 67.902-10.395 67.902-20.117-0.003907-3.5664-3.7031-7.2227-10.363-10.422z"/>
  <path d="m317.84 348.25c0 0.78516 0.35156 1.5859 0.98828 2.3828 2.1914-1.6992 5.3359-3.25 9.2578-4.6094l-4.0078-3.875c-4.0117 1.9531-6.2383 4.0547-6.2383 6.1016z"/>
  <path d="m433.95 348.25c0-1.9766-2.1094-4.0117-5.8828-5.9062l-3.9492 3.8281c3.7266 1.3242 6.7266 2.8242 8.8398 4.4609 0.64062-0.79688 0.99219-1.5977 0.99219-2.3828z"/>
  <path d="m322.28 335.44 3.2305 3.1211c11.625-4.707 31.367-7.1875 50.395-7.1875 19.242 0 39.219 2.543 50.793 7.3516l3.2109-3.1172c-11.895-4.7422-30.746-8.1602-53.996-8.1602-23.004 0.003907-41.707 3.3438-53.633 7.9922z"/>
  <path d="m436.31 360.98c0-0.16406-0.027344-0.32812-0.058594-0.48828-13.43 6.8906-37.156 10.754-60.352 10.754-23.215 0-46.941-3.8711-60.383-10.766-0.007813 0.16406-0.058594 0.32813-0.058594 0.49219 0 9.3008 24.289 19.254 60.43 19.254 36.148 0.007813 60.422-9.9414 60.422-19.246z"/>
  <path d="m433.92 370.69-0.96094 11.203c2.1641-1.9492 3.3477-4.0078 3.3477-6.0859 0-0.78906-0.17578-1.5977-0.51562-2.3945l1.6367-0.71094v-5.3984c-0.92969 1.1719-2.1016 2.3008-3.5078 3.3867z"/>
  <path d="m432.54 386.71-1.1289 12.91c3.1523-2.3555 4.8906-4.8477 4.8906-7.3125 0-0.78906-0.17578-1.5977-0.51563-2.3906l1.6367-0.71094v-6.9414c-1.207 1.5547-2.8359 3.0469-4.8828 4.4453z"/>
  <path d="m424.55 340.79c-9.9961-3.8281-27.309-6.7383-48.652-6.7383-21.09 0-38.199 2.8477-48.254 6.5977l4.2891 4.1641c11.09-3.1445 26.738-5.0312 43.961-5.0312 17.445 0 33.27 1.9336 44.379 5.1562z"/>
  <path d="m334.16 346.96 4.4844 4.3477c10.453-2.1836 23.438-3.4336 37.246-3.4336 14.012 0 27.164 1.2852 37.691 3.5312l4.4766-4.3398c-10.754-2.875-25.871-4.625-42.168-4.625-16.082 0.007813-30.988 1.7109-41.73 4.5195z"/>
  <path d="m430.96 352.45c-2.1094-1.543-5.1719-2.957-8.9727-4.207l-4.2422 4.1172c3.125 0.80078 5.9492 1.6992 8.4062 2.6836 1.9453-0.83203 3.5664-1.7031 4.8086-2.5938z"/>
  <path d="m325.66 355.05c2.5703-1.0312 5.5234-1.9766 8.832-2.8086l-4.2734-4.1328c-3.9961 1.2852-7.1875 2.7461-9.375 4.3477 1.2461 0.88672 2.8555 1.7578 4.8164 2.5938z"/>
  <path d="m422.31 356.5c-11.074-3.7422-27.988-5.9453-46.414-5.9453-18.438 0-35.352 2.207-46.414 5.9453 10.23 3.4336 26.543 5.9609 46.414 5.9609 19.852 0 36.176-2.5312 46.414-5.9609z"/>
  <path d="m341.62 292.29c-1.3203 0.75-1.1328 4.1211-2.3906 5.9258l-3.957 6.3945-35.969 20.273 3.3516 5.9492 35.969-20.273 7.1367-0.074219c2.5898-0.12891 5.3672 1.7656 6.6914 1.0195l4.6875-2.6484-10.832-19.219z" fill-rule="evenodd"/>
  <path d="m295.6 326.64-2.6602 1.4961c-1.3242 0.75-1.793 2.4297-1.0508 3.7539l0.15234 0.26562 0.64453 1.1445 0.15234 0.26562c0.74219 1.3242 2.4336 1.793 3.7539 1.0469l2.6562-1.4961c0.22656-0.125 0.40625-0.28906 0.57812-0.46484l-3.5312-6.2656c-0.24219 0.050782-0.47266 0.125-0.69531 0.25391z" fill-rule="evenodd"/>
  <path d="m443.52 257-2.0977-8.3164-6.0352-6.0938c-0.74219-1.3242-2.4297-1.793-3.7539-1.0469l-82.395 46.453 10.836 19.215 82.395-46.449c1.3203-0.75391 1.7891-2.4336 1.0508-3.7617z" fill-rule="evenodd"/>
  <path d="m373.52 221.07c0.16406 1.668 0.42188 3.3242 0.80859 4.9531 0.29688 1.25 0.59375 2.5 0.97266 3.7266 0.42188 1.3672 0.89453 2.7227 1.4219 4.0547 0.53125 1.3438 1.1289 2.6562 1.7383 3.9648 0.46484 0.98438 0.95703 1.957 1.5 2.8984 0.875 1.5234 1.7656 3.0508 2.707 4.5312 0.87109 1.3672 1.8203 2.6836 2.7344 4.0156 0.40234 0.57422 0.82422 1.1328 1.2461 1.6992 0.039063 0.058594 0.085938 0.11328 0.13672 0.17969 0.26953-0.18359 0.53906-0.33984 0.78125-0.53906 0.68359-0.53516 1.375-1.0625 2.0078-1.6484 0.59375-0.55078 1.1523-1.1445 1.6875-1.7617 0.91016-1.043 1.6797-2.1875 2.3203-3.4141 0.34766-0.66406 0.64844-1.3438 0.94531-2.0312 0.17969-0.42578 0.3125-0.87109 0.47656-1.3086 0.019531-0.046875 0.042969-0.09375 0.0625-0.13672 0.125-0.44531 0.25-0.89453 0.375-1.3438 0.046875-0.23828 0.09375-0.47266 0.13672-0.70703 0.26172-1.2305 0.39453-2.4727 0.41016-3.7266 0.019531-1.4023-0.10547-2.8008-0.37891-4.1758-0.19531-0.96094-0.44922-1.9023-0.77734-2.832-0.33984-0.94141-0.73828-1.8555-1.2109-2.7422-0.5625-1.0469-1.2031-2.043-1.9375-2.9727-0.74219-0.94531-1.5625-1.8242-2.4688-2.6172-1.0742-0.95312-2.2383-1.7852-3.4922-2.4844-1.1523-0.64453-2.3438-1.1758-3.6055-1.5781-0.070312-0.019531-0.12891-0.050781-0.19922-0.085937-0.44531-0.125-0.89062-0.25-1.3398-0.375-0.23828-0.046875-0.47656-0.089844-0.71094-0.13672-1.2109-0.25-2.4453-0.38281-3.6797-0.40234-0.92969-0.019531-1.8672 0.027344-2.7891 0.14844-0.089843 0.007812-0.11719 0.046875-0.125 0.13672-0.042969 1.3516-0.058593 2.7031 0.023438 4.0586 0.0625 0.875 0.13281 1.7656 0.22266 2.6523zm12.215 23.645c0.21875-0.29688 0.60547-0.44531 0.94141-0.30859 0.13281 0.050781 0.26953 0.16016 0.36328 0.28125 0.63281 0.79688 1.2656 1.6055 1.8906 2.4141 0.16016 0.19922 0.20312 0.42578 0.12891 0.67578-0.089844 0.29687-0.29688 0.49219-0.60156 0.55469-0.30859 0.0625-0.57812-0.023437-0.77734-0.28516-0.62109-0.78906-1.25-1.5781-1.8711-2.3672-0.23828-0.31641-0.26953-0.67969-0.074219-0.96484zm-2.7305-5.5898c0.007812-0.015625 0.023438-0.023438 0.03125-0.039063 0.125 0.10547 0.27344 0.1875 0.35547 0.3125 0.49219 0.72266 0.97266 1.4648 1.4492 2.1992 0.11328 0.18359 0.24609 0.35938 0.33984 0.55078 0.17969 0.33984 0.03125 0.78516-0.31641 0.98438-0.34766 0.20312-0.80859 0.11328-1.0234-0.20312-0.53516-0.81641-1.0703-1.6367-1.6094-2.457-0.12891-0.19531-0.26172-0.38281-0.23828-0.63281 0.035157-0.50391 0.52344-0.85156 1.0117-0.71484zm-2.5469-5.4883c0.39453 0.81641 0.77344 1.6328 1.1602 2.4492 0.0625 0.12891 0.11719 0.26172 0.18359 0.39453 0.085937 0.17188 0.089844 0.34766 0.042969 0.52734-0.097656 0.32031-0.35156 0.53516-0.6875 0.5625-0.33984 0.027344-0.63281-0.11719-0.78125-0.42969-0.44922-0.94531-0.89453-1.8906-1.332-2.8398-0.17969-0.38281-0.003906-0.80859 0.38672-0.99609 0.40625-0.19141 0.84766-0.050781 1.0273 0.33203zm-2.1094-6.1406c0.29297 0.81641 0.56641 1.6367 0.84766 2.457 0.0625 0.17969 0.11719 0.35938 0.18359 0.53906 0.10547 0.30469 0.039062 0.57812-0.17969 0.80078-0.21875 0.21875-0.49219 0.26563-0.73047 0.21484-0.35938-0.097656-0.51562-0.31641-0.60938-0.60547-0.28125-0.83984-0.55859-1.6719-0.84766-2.5039-0.042968-0.13281-0.09375-0.26562-0.12891-0.39453-0.10938-0.38672 0.097656-0.78125 0.50391-0.91406 0.39453-0.14063 0.83984 0.035156 0.96094 0.40625zm-1.1406-5.8867c0.17969 0.96484 0.36328 1.9336 0.53516 2.9023 0.097657 0.55859-0.44141 1.0117-1.0391 0.84375-0.23828-0.09375-0.45312-0.26562-0.51172-0.58594-0.17969-1-0.375-1.9922-0.55859-2.9922-0.082031-0.40625 0.097656-0.76563 0.44531-0.90625 0.38281-0.15234 0.78125-0.042969 0.98828 0.29687 0.074219 0.13281 0.11719 0.29297 0.14062 0.44141zm-1.8945-6.3789c0.09375-0.38672 0.55078-0.57422 0.88281-0.53125 0.34766 0.042969 0.67188 0.37891 0.67188 0.72266 0.015625 1.0664 0.023438 2.125 0.023438 3.1914 0.003906 0.40234-0.34766 0.72266-0.78125 0.73047-0.39844 0.003906-0.75781-0.32812-0.77344-0.71094-0.019531-0.56641-0.019531-1.1367-0.03125-1.7109 0-0.44922-0.003906-0.89844-0.007812-1.3555-0.011719-0.10938 0.007812-0.22266 0.015625-0.33594z" fill-rule="evenodd"/>
  <path d="m356.34 239.05c0.22266 1 0.55078 1.9766 0.97266 2.9141 0.30469 0.68359 0.62891 1.3594 0.98438 2.0156 0.50781 0.96484 1.1289 1.8672 1.8086 2.7227 0.79688 1 1.6719 1.9258 2.6484 2.7461 0.47656 0.39844 0.98047 0.76562 1.4805 1.1406 0.74219 0.5625 1.5469 1.0312 2.3789 1.457 0.95703 0.49219 1.9453 0.91797 2.9727 1.2461 0.070312 0.019531 0.125 0.050781 0.18359 0.082031 0.44922 0.12891 0.89453 0.25 1.3398 0.375 0.25 0.050781 0.49219 0.097656 0.73828 0.14844 1.2266 0.25391 2.4688 0.38672 3.7109 0.40625 1.668 0.023437 3.3086-0.15625 4.9336-0.53906 0.046875-0.007813 0.085937-0.027344 0.14062-0.042969-0.22266-0.29297-0.4375-0.56641-0.63281-0.85156-0.73438-1.0039-1.4805-2-2.1875-3.0195-0.78906-1.1406-1.5469-2.3008-2.3008-3.4609-0.38672-0.59766-0.75781-1.2031-1.1094-1.8203-0.58594-1.0234-1.1875-2.043-1.7305-3.0859-0.67578-1.3359-1.3242-2.6914-1.9492-4.0547-0.42187-0.92969-0.78906-1.875-1.1445-2.8359-0.35547-0.96484-0.67578-1.9453-0.98828-2.9297-0.21484-0.66406-0.40234-1.332-0.57422-2-0.18359-0.72266-0.33594-1.457-0.49219-2.1836-0.29297-1.4297-0.50781-2.8711-0.65234-4.3242-0.16406-1.6719-0.23047-3.3477-0.19531-5.0312 0.003906-0.089844-0.007813-0.17969-0.019532-0.27344 0.007813-0.019531 0.023438-0.039062 0.023438-0.0625 0.023437-0.41797 0.042968-0.83203 0.066406-1.2461 0.003906-0.09375 0.007812-0.1875 0.015625-0.29688-0.09375 0.046875-0.17188 0.074218-0.24219 0.11719-0.17578 0.10547-0.34766 0.20703-0.51563 0.31641-0.17578 0.085937-0.34766 0.16016-0.50781 0.26172-1.1836 0.71875-2.293 1.5469-3.3086 2.4961-1.543 1.4258-2.8359 3.0547-3.8594 4.8867-0.63281 1.1406-1.1641 2.3242-1.5664 3.5703-0.019531 0.070313-0.058594 0.12891-0.085937 0.19922-0.125 0.44922-0.25 0.89453-0.375 1.3438-0.050782 0.25-0.097657 0.50391-0.15234 0.75391-0.24609 1.2188-0.38281 2.4453-0.40234 3.6797-0.015625 0.9375 0.007812 1.875 0.16406 2.8047 0.11719 0.78906 0.25 1.5898 0.42969 2.375zm18.559 10.27c0.046875 0.003907 0.089844 0.019532 0.13281 0.027344 0.015625-0.007812 0.019532-0.019531 0.027344-0.027344 0.11328 0.097657 0.25391 0.1875 0.35156 0.30469 0.35938 0.44531 0.69922 0.89844 1.0625 1.3516 0.24609 0.30859 0.49219 0.62109 0.74219 0.92188 0.24219 0.28125 0.21875 0.76562-0.13281 1.0664-0.21484 0.18359-0.76563 0.23047-1.0273-0.11328-0.60547-0.78906-1.2305-1.5664-1.8438-2.3477-0.17969-0.23047-0.21484-0.49219-0.082032-0.75391 0.16406-0.30859 0.41797-0.45703 0.76953-0.42969zm-4.375-5.2266c0.19922-0.26172 0.5625-0.38281 0.875-0.29297 0.003906-0.015625 0.019531-0.023437 0.027344-0.039062 0.12891 0.11328 0.28516 0.20312 0.37891 0.33984 0.26953 0.37109 0.50391 0.75391 0.75391 1.1328 0.31641 0.49219 0.64062 0.98438 0.95703 1.4727 0.22656 0.33984 0.20703 0.75391-0.058593 1.0039-0.30859 0.30469-0.75781 0.35547-1.0742 0.089843-0.14844-0.11719-0.25-0.29688-0.35547-0.46094-0.51562-0.78906-1.0312-1.5781-1.543-2.3672-0.17969-0.28125-0.16016-0.61328 0.039063-0.87891zm-2.1602-6.3906c0.22656 0.039063 0.35937 0.3125 0.49219 0.58594 0.40625 0.88281 0.81641 1.7617 1.2109 2.6367 0.1875 0.41797 0.03125 0.86719-0.37891 1.0547-0.37891 0.17969-0.88672 0.015625-1.0625-0.37109-0.39453-0.85547-0.79688-1.7109-1.1992-2.5625-0.046876-0.10547-0.097657-0.20312-0.14063-0.30859-0.12891-0.28906-0.097656-0.55859 0.10547-0.79688 0.21875-0.26953 0.51953-0.35156 0.97266-0.23828zm-1.7383-5.5469c0.33594 0.98438 0.67188 1.9688 1.0078 2.957 0.10547 0.30859 0.042969 0.58203-0.18359 0.80859-0.22266 0.22266-0.49609 0.26953-0.76562 0.20703-0.30859-0.097656-0.48438-0.28516-0.57812-0.55859-0.31641-0.97656-0.65234-1.9414-0.98438-2.9141-0.14844-0.44531 0.058594-0.84375 0.49219-0.99609 0.43359-0.14453 0.85547 0.058594 1.0117 0.49609zm-1-5.0234c0.11719 0.64063 0.24219 1.2852 0.35547 1.9336 0.097656 0.63281-0.42578 1.0977-1.1133 0.89844-0.22656-0.082032-0.4375-0.26172-0.49609-0.58594-0.19531-1.0781-0.40234-2.1602-0.60156-3.2383-0.082032-0.42578 0.20312-0.79688 0.65234-0.89844 0.38672-0.09375 0.83203 0.14844 0.92969 0.53125 0.10938 0.44531 0.1875 0.90234 0.27344 1.3594zm-1.3594-8.1602c0.46875 0 0.83203 0.35938 0.83984 0.82812 0.015625 1.1016 0.023437 2.2031 0.03125 3.3047-0.003906 0.066406-0.019531 0.13281-0.023437 0.19922-0.11328 0.39453-0.50391 0.64453-0.90625 0.59375-0.42578-0.0625-0.72266-0.39453-0.73047-0.80469-0.015625-1.0898-0.027344-2.1797-0.039063-3.2734-0.003906-0.5 0.33984-0.84375 0.82812-0.84766z" fill-rule="evenodd"/>
  <path d="m368.48 224.82c0.22266 1.2695 0.46094 2.5352 0.75781 3.7852 0.29297 1.2031 0.62891 2.3945 1.0078 3.5703 0.37109 1.1641 0.82031 2.3047 1.2461 3.457 0.10937 0.28516 0.24609 0.55469 0.36328 0.82813 0.023437 0.0625 0.03125 0.11719 0.050781 0.17578 0.50781 1.0977 1.0039 2.207 1.5312 3.2969 0.35547 0.73438 0.73438 1.4531 1.1289 2.168 0.41016 0.73828 0.82031 1.4688 1.2539 2.1875 0.53125 0.88281 1.0742 1.7656 1.6367 2.6289 0.66016 1.0078 1.3438 2.0039 2.0273 3.0039 0.12891 0.19531 0.28906 0.37109 0.42578 0.55469 0.019532 0.042969 0.027344 0.085938 0.058594 0.125 0.34766 0.47266 0.69141 0.95313 1.0391 1.4258 0.32813 0.44141 0.66406 0.88281 0.98828 1.3203 1.2539-0.40234 2.4531-0.91406 3.5938-1.5547-0.019532-0.027344-0.023438-0.042969-0.03125-0.058594-0.75-1.0273-1.4961-2.0586-2.2539-3.0859-0.019532-0.023438-0.058594-0.027344-0.085938-0.042969-0.042969-0.082031-0.074219-0.17578-0.125-0.25-0.26562-0.39453-0.54297-0.78125-0.80469-1.1758-0.53516-0.80469-1.0703-1.6133-1.5859-2.4375-0.55469-0.89063-1.0898-1.793-1.6289-2.6953-0.21484-0.35547-0.40625-0.71875-0.59766-1.0859-0.5625-1.0859-1.1367-2.1602-1.6719-3.2617-0.48828-1.0078-0.91016-2.043-1.3633-3.0625-0.019531-0.050781-0.066406-0.09375-0.097656-0.14062 0-0.050782 0-0.10938-0.015625-0.16016-0.070313-0.18359-0.15234-0.35938-0.21484-0.54297-0.42188-1.1875-0.85547-2.3711-1.2422-3.5703-0.42969-1.3594-0.80078-2.7422-1.0547-4.1445-0.21875-1.1602-0.42578-2.3203-0.57422-3.4922-0.13281-1.0781-0.20313-2.1641-0.27344-3.25-0.085938-1.3789-0.058594-2.7617 0.019531-4.1406 0.015625-0.25391 0.03125-0.51172 0.050781-0.80078-0.61719 0.15625-1.207 0.28125-1.7812 0.46094-0.73437 0.23047-1.457 0.51172-2.1836 0.77344-0.09375 0.027344-0.10938 0.082032-0.11719 0.17188-0.070312 1.5586-0.046875 3.1172 0.046875 4.6758 0.089844 1.4531 0.22266 2.9023 0.47656 4.3438z" fill-rule="evenodd"/>
 </g>
</svg>
